Coordinates
version=1
nRows=24
nColumns=24
inDegrees=yes

Units are S.I. units (second, meters, Newtons, ...)
Angles are in degrees.

endheader
time	pelvis_tilt	pelvis_list	pelvis_rotation	pelvis_tx	pelvis_ty	pelvis_tz	hip_flexion_r	hip_adduction_r	hip_rotation_r	knee_angle_r	ankle_angle_r	subtalar_angle_r	mtp_angle_r	hip_flexion_l	hip_adduction_l	hip_rotation_l	knee_angle_l	ankle_angle_l	subtalar_angle_l	mtp_angle_l	lumbar_extension	lumbar_bending	lumbar_rotation
      0.68700000	     -6.41820233	     -3.16141861	      2.01585587	     -0.48646816	      0.99344747	      0.30781263	     17.70762066	      7.21510120	     -3.32753604	    -17.34405781	      5.37147512	    -12.66236197	     -0.90136768	     27.29441756	     -2.99458985	     -0.43628099	    -69.44160619	     -7.66533912	     -8.59475022	      3.17948979	      2.55319966	      6.47117305	      4.75349647
      0.69116667	     -6.31725085	     -3.08977437	      2.04206261	     -0.48104840	      0.99452559	      0.30791244	     16.99274742	      7.17573978	     -3.28186389	    -16.85222443	      5.43082822	    -12.61378666	     -0.95143790	     27.76082030	     -2.85606233	     -0.36618097	    -69.09139589	     -7.17186528	     -8.82577243	      3.10951989	      2.43598231	      6.38032287	      4.83436014
      0.69533333	     -6.23976717	     -3.00794477	      2.05095640	     -0.47562538	      0.99551274	      0.30801510	     16.31360228	      7.12532378	     -3.23183474	    -16.38650411	      5.50666509	    -12.56372848	     -1.01360786	     28.22869910	     -2.71477353	     -0.32526127	    -68.67506775	     -6.67714069	     -9.06512131	      3.02540359	      2.35629703	      6.29207498	      4.92961555
      0.69950000	     -6.19905984	     -2.91690898	      2.03663263	     -0.47024241	      0.99639489	      0.30812654	     15.69774767	      7.06442932	     -3.17408540	    -15.96678513	      5.59201755	    -12.50489306	     -1.04562071	     28.71623093	     -2.56890812	     -0.30939057	    -68.19857912	     -6.14585531	     -9.33309455	      2.98558354	      2.31007103	      6.18891491	      4.99385056
      0.70366667	     -6.10783803	     -2.82321487	      2.01934236	     -0.46480409	      0.99734480	      0.30824383	     15.00664114	      7.00409444	     -3.10410917	    -15.50865066	      5.66163244	    -12.43688821	     -1.09209333	     29.11272089	     -2.43089460	     -0.30796340	    -67.63381703	     -5.65294044	     -9.58939807	      2.92731119	      2.21178048	      6.08922974	      5.10608333
      0.70783333	     -6.01095500	     -2.72110526	      2.00497724	     -0.45938073	      0.99825288	      0.30836575	     14.30943770	      6.93432531	     -3.02935877	    -15.04797830	      5.74404500	    -12.35546520	     -1.16297643	     29.48328248	     -2.28457959	     -0.30711073	    -67.00488259	     -5.19761222	     -9.82093824	      2.83738243	      2.09260045	      5.95956165	      5.25447477
      0.71200000	     -5.95017279	     -2.61595799	      1.96283049	     -0.45397237	      0.99904367	      0.30849462	     13.67033587	      6.85996631	     -2.94445403	    -14.62724922	      5.83127506	    -12.26945801	     -1.24262844	     29.86762399	     -2.14522344	     -0.33647305	    -66.31608389	     -4.71335569	    -10.07253803	      2.73598874	      2.01865271	      5.84169673	      5.39429577
      0.71616667	     -5.91381883	     -2.51380605	      1.89480563	     -0.44858279	      0.99974122	      0.30863904	     13.07408809	      6.78796166	     -2.85203126	    -14.23674593	      5.91626754	    -12.18702017	     -1.29098375	     30.25422686	     -2.02139625	     -0.39137189	    -65.56939035	     -4.20199831	    -10.32582796	      2.67421768	      1.97811668	      5.74216062	      5.49330970
      0.72033333	     -5.83549441	     -2.40312065	      1.83053716	     -0.44317180	      1.00045395	      0.30878355	     12.42388043	      6.70629611	     -2.75940478	    -13.82987989	      6.00280162	    -12.08106785	     -1.34464175	     30.56736006	     -1.89393402	     -0.45283007	    -64.75260669	     -3.73609679	    -10.57094313	      2.60104978	      1.87933685	      5.62069806	      5.63425517
      0.72450000	     -5.78079799	     -2.31073580	      1.77501260	     -0.43777339	      1.00106175	      0.30889514	     11.81060534	      6.63287181	     -2.72298052	    -13.44053219	      6.11757436	    -11.86622310	     -1.64560777	     30.89267797	     -1.77559352	     -0.49301189	    -63.88964991	     -3.27499683	    -10.80506633	      2.16763550	      1.80350188	      5.51624181	      5.96023323
      0.72866667	     -5.72928096	     -2.18098257	      1.67158809	     -0.43236819	      1.00164871	      0.30908328	     11.20508790	      6.53251785	     -2.58930692	    -13.06608806	      6.20555578	    -11.79130729	     -1.68976477	     31.17544319	     -1.65201534	     -0.60363052	    -62.93622394	     -2.85399043	    -11.02977686	      2.10124948	      1.74166729	      5.37877642	      5.98046987
      0.73283333	     -5.65991145	     -2.09669397	      1.60694966	     -0.42695141	      1.00216704	      0.30921167	     10.56828685	      6.46939524	     -2.51795340	    -12.65844257	      6.30118511	    -11.65938575	     -1.76198212	     31.43492685	     -1.55577047	     -0.65951630	    -61.95207375	     -2.46754249	    -11.24852430	      1.98128742	      1.65146129	      5.28249168	      6.14831985
      0.73700000	     -5.60600876	     -1.99373103	      1.50714016	     -0.42155021	      1.00260508	      0.30937772	      9.97059457	      6.38615320	     -2.43582748	    -12.29504622	      6.39979034	    -11.50589739	     -1.82934098	     31.67952788	     -1.46012144	     -0.75962816	    -60.90378121	     -2.07865867	    -11.47165805	      1.85670086	      1.58156009	      5.17030089	      6.30777758
      0.74116667	     -5.61523238	     -1.91276916	      1.38566772	     -0.41619226	      1.00286447	      0.30955227	      9.46217059	      6.32443675	     -2.32795939	    -11.96802578	      6.48982893	    -11.36780520	     -1.87073995	     31.97865532	     -1.39139367	     -0.86004256	    -59.81873887	     -1.68481007	    -11.68531303	      1.76971947	      1.57382531	      5.10192931	      6.42306888
      0.74533333	     -5.55114403	     -1.83576027	      1.30485442	     -0.41077580	      1.00319380	      0.30968795	      8.85082485	      6.26029618	     -2.28784493	    -11.59253030	      6.60106811	    -11.18194541	     -1.94179271	     32.17242418	     -1.31459179	     -0.93296933	    -58.66588045	     -1.38935514	    -11.89161248	      1.60544429	      1.49459934	      5.00958176	      6.63897531
      0.74950000	     -5.51630085	     -1.76797015	      1.20508400	     -0.40539214	      1.00339927	      0.30983265	      8.29050129	      6.20413952	     -2.23061573	    -11.25129588	      6.70571927	    -10.99249281	     -2.01811249	     32.37885398	     -1.25265920	     -1.01209809	    -57.47017547	     -1.09407465	    -12.08483169	      1.40970336	      1.43518692	      4.94611649	      6.81087145
      0.75366667	     -5.52526251	     -1.68207596	      1.07412466	     -0.40001543	      1.00348908	      0.30997955	      7.81281069	      6.11699699	     -2.23026840	    -10.97933038	      6.85053953	    -10.53885729	     -2.44240465	     32.60104406	     -1.18484347	     -1.12530712	    -56.21381532	     -0.80921656	    -12.23236164	      0.25597697	      1.43584211	      4.86132548	      7.08852656
      0.75783333	     -5.50300830	     -1.63964171	      0.96874783	     -0.39464066	      1.00355439	      0.31014948	      7.26629366	      6.09273495	     -2.12269574	    -10.63501431	      6.94160461	    -10.53820037	     -2.46799628	     32.77819912	     -1.15524348	     -1.20169713	    -54.91844086	     -0.57778711	    -12.42827725	      0.18020504	      1.39658445	      4.82624629	      7.09419015
      0.76200000	     -5.47105080	     -1.60938691	      0.88690611	     -0.38923875	      1.00357856	      0.31028775	      6.70053087	      6.07444233	     -2.07873563	    -10.26738814	      7.03668628	    -10.43697487	     -2.50630863	     32.92555656	     -1.12777822	     -1.25567483	    -53.57510566	     -0.41526164	    -12.58982063	      0.04959901	      1.34716388	      4.79806003	      7.23600800
      0.76616667	     -5.45240497	     -1.57896007	      0.78835939	     -0.38385410	      1.00351046	      0.31042791	      6.16999667	      6.05221258	     -2.03753761	     -9.94096591	      7.14681775	    -10.28333314	     -2.54312464	     33.06193337	     -1.10612085	     -1.32207863	    -52.18167452	     -0.27209016	    -12.72980778	     -0.09769127	      1.30974720	      4.77559716	      7.37786465
      0.77033333	     -5.46360747	     -1.56514802	      0.67982869	     -0.37846743	      1.00334487	      0.31059344	      5.67759440	      6.04955727	     -1.98606911	     -9.62543706	      7.25810768	    -10.13950979	     -2.56995049	     33.20934016	     -1.10953681	     -1.39497894	    -50.74555244	     -0.15895631	    -12.84076829	     -0.21937528	      1.31268378	      4.76716748	      7.48702906
      0.77450000	     -5.46421588	     -1.56780820	      0.58292673	     -0.37309335	      1.00312757	      0.31073619	      5.17275932	      6.06367761	     -1.93226725	     -9.30563695	      7.37182263	    -10.00187640	     -2.59072654	     33.32724516	     -1.11930238	     -1.44143359	    -49.26926798	     -0.07614525	    -12.91961972	     -0.32288712	      1.28936277	      4.78553697	      7.58950499
      0.77866667	     -5.45946141	     -1.57261613	      0.49651981	     -0.36768903	      1.00287633	      0.31086547	      4.66295299	      6.07732107	     -1.91378181	     -8.98957925	      7.48985851	     -9.86676704	     -2.61448881	     33.40990251	     -1.12663636	     -1.48020995	    -47.73692479	     -0.04175060	    -12.98723861	     -0.44023106	      1.27130648	      4.79651237	      7.70705272
      0.78283333	     -5.41813170	     -1.59009659	      0.43249189	     -0.36226081	      1.00262060	      0.31095864	      4.10655718	      6.10241396	     -1.93156366	     -8.66075810	      7.61764023	     -9.71055422	     -2.64918974	     33.43114267	     -1.13402950	     -1.49535216	    -46.16404050	     -0.03014367	    -13.03799559	     -0.60453166	      1.21024286	      4.82951912	      7.83982313
